<mxfile host="app.diagrams.net" modified="2021-11-16T05:52:29.847Z" agent="5.0 (Windows NT 10.0; Win64; x64) AppleWebKit/537.36 (KHTML, like Gecko) Chrome/95.0.4638.69 Safari/537.36" etag="5PPD2k9SAadPXneYQi30" version="15.7.4" type="github">
  <diagram name="Page-1" id="c7558073-3199-34d8-9f00-42111426c3f3">
    <mxGraphModel dx="1062" dy="622" grid="1" gridSize="10" guides="1" tooltips="1" connect="1" arrows="1" fold="1" page="1" pageScale="1" pageWidth="1169" pageHeight="827" background="none" math="0" shadow="0">
      <root>
        <mxCell id="0" />
        <mxCell id="1" parent="0" />
        <mxCell id="5" value="메인페이지" style="shape=process;whiteSpace=wrap;align=center;verticalAlign=middle;size=0.0475;fontStyle=1;strokeWidth=3;fillColor=#FFCCCC" parent="1" vertex="1">
          <mxGeometry x="43" y="274" width="220" height="50" as="geometry" />
        </mxCell>
        <mxCell id="6" value="&lt;p style=&quot;margin: 0px ; margin-top: 4px ; text-align: center ; text-decoration: underline&quot;&gt;로그인&lt;/p&gt;&lt;hr&gt;&lt;p style=&quot;margin: 0px ; margin-left: 8px&quot;&gt;로컬 로그인&lt;/p&gt;&lt;p style=&quot;margin: 0px ; margin-left: 8px&quot;&gt;&lt;br&gt;&lt;/p&gt;" style="verticalAlign=middle;align=center;overflow=fill;fontSize=12;fontFamily=Helvetica;html=1;rounded=1;fontStyle=1;strokeWidth=3;fillColor=#E6FFCC" parent="1" vertex="1">
          <mxGeometry x="49" y="43" width="80" height="60" as="geometry" />
        </mxCell>
        <mxCell id="9" value="&lt;p style=&quot;margin: 0px ; margin-top: 4px ; text-align: center ; text-decoration: underline&quot;&gt;게시물 작성/수정&lt;/p&gt;&lt;hr&gt;&lt;p style=&quot;margin: 0px ; margin-left: 8px&quot;&gt;마크다운&lt;/p&gt;&lt;p style=&quot;margin: 0px ; margin-left: 8px&quot;&gt;HTML&lt;/p&gt;" style="verticalAlign=middle;align=center;overflow=fill;fontSize=12;fontFamily=Helvetica;html=1;rounded=1;fontStyle=1;strokeWidth=3;fillColor=#E6FFCC" parent="1" vertex="1">
          <mxGeometry x="835" y="380" width="110" height="80" as="geometry" />
        </mxCell>
        <mxCell id="10" value="&lt;p style=&quot;margin: 0px ; margin-top: 4px ; text-align: center ; text-decoration: underline&quot;&gt;메인페이지 해더 버튼변경&lt;/p&gt;&lt;hr&gt;&lt;p style=&quot;margin: 0px ; margin-left: 8px&quot;&gt;게시물 작성&lt;/p&gt;&lt;p style=&quot;margin: 0px ; margin-left: 8px&quot;&gt;마이페이지&lt;/p&gt;&lt;p style=&quot;margin: 0px ; margin-left: 8px&quot;&gt;로그아웃&lt;/p&gt;&lt;p style=&quot;margin: 0px ; margin-left: 8px&quot;&gt;버튼 활성화&lt;/p&gt;" style="verticalAlign=middle;align=center;overflow=fill;fontSize=12;fontFamily=Helvetica;html=1;rounded=1;fontStyle=1;strokeWidth=3;fillColor=#E6FFCC" parent="1" vertex="1">
          <mxGeometry x="381.5" y="235.25" width="160" height="98" as="geometry" />
        </mxCell>
        <mxCell id="13" value="Management" style="whiteSpace=wrap;align=center;verticalAlign=middle;fontStyle=1;strokeWidth=3;fillColor=#FFFFCC" parent="1" vertex="1">
          <mxGeometry x="900" y="760" width="90" height="60" as="geometry" />
        </mxCell>
        <mxCell id="14" value="로그아웃" style="whiteSpace=wrap;align=center;verticalAlign=middle;fontStyle=1;strokeWidth=3;fillColor=#FFFFCC" parent="1" vertex="1">
          <mxGeometry x="1007" y="759.9999999999999" width="90" height="60" as="geometry" />
        </mxCell>
        <mxCell id="15" value="마이페이지" style="whiteSpace=wrap;align=center;verticalAlign=middle;fontStyle=1;strokeWidth=3;fillColor=#FFFFCC" parent="1" vertex="1">
          <mxGeometry x="649.9999999999999" y="200" width="90" height="60" as="geometry" />
        </mxCell>
        <mxCell id="11" value="&lt;p style=&quot;margin: 0px ; margin-top: 4px ; text-align: center ; text-decoration: underline&quot;&gt;&lt;strong&gt;테그 검색&lt;/strong&gt;&lt;/p&gt;&lt;hr&gt;&lt;p style=&quot;margin: 0px ; margin-left: 8px&quot;&gt;태그별 조회&lt;/p&gt;" style="verticalAlign=middle;align=center;overflow=fill;fontSize=12;fontFamily=Helvetica;html=1;rounded=1;fontStyle=1;strokeWidth=3;fillColor=#E6FFCC" parent="1" vertex="1">
          <mxGeometry x="381.5" y="560" width="110" height="60" as="geometry" />
        </mxCell>
        <mxCell id="58" value="" style="edgeStyle=elbowEdgeStyle;elbow=horizontal;strokeColor=#990000;strokeWidth=2;exitX=1;exitY=0.5;exitDx=0;exitDy=0;entryX=0.5;entryY=0;entryDx=0;entryDy=0;" parent="1" source="6" target="5" edge="1">
          <mxGeometry width="100" height="100" relative="1" as="geometry">
            <mxPoint x="413" y="93" as="sourcePoint" />
            <mxPoint x="295" y="344" as="targetPoint" />
            <Array as="points">
              <mxPoint x="153" y="203" />
              <mxPoint x="295" y="213" />
            </Array>
          </mxGeometry>
        </mxCell>
        <mxCell id="62" value="Yes" style="text;spacingTop=-5;align=center" parent="1" vertex="1">
          <mxGeometry x="346.5" y="123" width="60" height="20" as="geometry" />
        </mxCell>
        <mxCell id="78" value="" style="edgeStyle=elbowEdgeStyle;elbow=horizontal;strokeColor=#990000;strokeWidth=2;exitX=1;exitY=0.5;exitDx=0;exitDy=0;entryX=0;entryY=0.5;entryDx=0;entryDy=0;" parent="1" source="H7GjhvXn9Tmx8p5Mvb_k-101" target="10" edge="1">
          <mxGeometry width="100" height="100" relative="1" as="geometry">
            <mxPoint x="533" y="233" as="sourcePoint" />
            <mxPoint x="483" y="163" as="targetPoint" />
          </mxGeometry>
        </mxCell>
        <mxCell id="83" value="" style="edgeStyle=elbowEdgeStyle;elbow=horizontal;strokeColor=#990000;strokeWidth=2;exitX=1;exitY=0.5;exitDx=0;exitDy=0;entryX=0;entryY=0.5;entryDx=0;entryDy=0;" parent="1" source="10" target="9" edge="1">
          <mxGeometry width="100" height="100" relative="1" as="geometry">
            <mxPoint x="610" y="590" as="sourcePoint" />
            <mxPoint x="830" y="430" as="targetPoint" />
            <Array as="points">
              <mxPoint x="720" y="430" />
            </Array>
          </mxGeometry>
        </mxCell>
        <mxCell id="H7GjhvXn9Tmx8p5Mvb_k-97" value="&lt;p style=&quot;margin: 0px ; margin-top: 4px ; text-align: center ; text-decoration: underline&quot;&gt;로그인&lt;/p&gt;&lt;hr&gt;&lt;p style=&quot;margin: 0px ; margin-left: 8px&quot;&gt;Google&amp;nbsp;&lt;/p&gt;&lt;p style=&quot;margin: 0px ; margin-left: 8px&quot;&gt;소셜&lt;span&gt;&amp;nbsp;로그인&lt;/span&gt;&lt;/p&gt;&lt;p style=&quot;margin: 0px ; margin-left: 8px&quot;&gt;&lt;br&gt;&lt;/p&gt;" style="verticalAlign=middle;align=center;overflow=fill;fontSize=12;fontFamily=Helvetica;html=1;rounded=1;fontStyle=1;strokeWidth=3;fillColor=#E6FFCC" vertex="1" parent="1">
          <mxGeometry x="49" y="113" width="80" height="70" as="geometry" />
        </mxCell>
        <mxCell id="H7GjhvXn9Tmx8p5Mvb_k-98" value="&lt;p style=&quot;margin: 0px ; margin-top: 4px ; text-align: center ; text-decoration: underline&quot;&gt;로그인&lt;/p&gt;&lt;hr&gt;&lt;p style=&quot;margin: 0px ; margin-left: 8px&quot;&gt;Git&lt;/p&gt;&lt;p style=&quot;margin: 0px ; margin-left: 8px&quot;&gt;소셜&lt;span&gt;&amp;nbsp;로그인&lt;/span&gt;&lt;/p&gt;&lt;p style=&quot;margin: 0px ; margin-left: 8px&quot;&gt;&lt;br&gt;&lt;/p&gt;" style="verticalAlign=middle;align=center;overflow=fill;fontSize=12;fontFamily=Helvetica;html=1;rounded=1;fontStyle=1;strokeWidth=3;fillColor=#E6FFCC" vertex="1" parent="1">
          <mxGeometry x="49" y="193" width="80" height="70" as="geometry" />
        </mxCell>
        <mxCell id="H7GjhvXn9Tmx8p5Mvb_k-99" value="" style="edgeStyle=elbowEdgeStyle;elbow=horizontal;strokeColor=#990000;strokeWidth=2;exitX=1;exitY=0.5;exitDx=0;exitDy=0;entryX=0.5;entryY=0;entryDx=0;entryDy=0;" edge="1" parent="1" source="H7GjhvXn9Tmx8p5Mvb_k-97" target="5">
          <mxGeometry width="100" height="100" relative="1" as="geometry">
            <mxPoint x="203" y="83" as="sourcePoint" />
            <mxPoint x="293" y="333" as="targetPoint" />
            <Array as="points">
              <mxPoint x="153" y="253" />
            </Array>
          </mxGeometry>
        </mxCell>
        <mxCell id="H7GjhvXn9Tmx8p5Mvb_k-100" value="" style="edgeStyle=elbowEdgeStyle;elbow=horizontal;strokeColor=#990000;strokeWidth=2;exitX=1;exitY=0.5;exitDx=0;exitDy=0;entryX=0.5;entryY=0;entryDx=0;entryDy=0;" edge="1" parent="1" source="H7GjhvXn9Tmx8p5Mvb_k-98" target="5">
          <mxGeometry width="100" height="100" relative="1" as="geometry">
            <mxPoint x="203" y="170" as="sourcePoint" />
            <mxPoint x="293" y="343" as="targetPoint" />
            <Array as="points">
              <mxPoint x="153" y="303" />
              <mxPoint x="293" y="293" />
            </Array>
          </mxGeometry>
        </mxCell>
        <mxCell id="H7GjhvXn9Tmx8p5Mvb_k-101" value="로그인?" style="rhombus;whiteSpace=wrap;html=1;fillColor=#dae8fc;strokeColor=#6c8ebf;" vertex="1" parent="1">
          <mxGeometry x="283" y="113" width="80" height="80" as="geometry" />
        </mxCell>
        <mxCell id="H7GjhvXn9Tmx8p5Mvb_k-102" value="" style="edgeStyle=elbowEdgeStyle;elbow=horizontal;strokeColor=#990000;strokeWidth=2;exitX=1;exitY=0.5;exitDx=0;exitDy=0;entryX=0;entryY=0.5;entryDx=0;entryDy=0;" edge="1" parent="1" source="5" target="H7GjhvXn9Tmx8p5Mvb_k-101">
          <mxGeometry width="100" height="100" relative="1" as="geometry">
            <mxPoint x="643" y="117" as="sourcePoint" />
            <mxPoint x="643" y="287" as="targetPoint" />
            <Array as="points">
              <mxPoint x="272" y="223" />
              <mxPoint x="1123" y="297" />
            </Array>
          </mxGeometry>
        </mxCell>
        <mxCell id="H7GjhvXn9Tmx8p5Mvb_k-103" value="" style="edgeStyle=elbowEdgeStyle;elbow=horizontal;strokeColor=#990000;strokeWidth=2;exitX=0.5;exitY=1;exitDx=0;exitDy=0;entryX=1;entryY=0.75;entryDx=0;entryDy=0;" edge="1" parent="1" source="H7GjhvXn9Tmx8p5Mvb_k-101" target="5">
          <mxGeometry width="100" height="100" relative="1" as="geometry">
            <mxPoint x="553" y="310" as="sourcePoint" />
            <mxPoint x="383" y="383" as="targetPoint" />
          </mxGeometry>
        </mxCell>
        <mxCell id="H7GjhvXn9Tmx8p5Mvb_k-104" value="No" style="text;spacingTop=-5;align=center" vertex="1" parent="1">
          <mxGeometry x="306.5" y="203" width="40" height="20" as="geometry" />
        </mxCell>
        <mxCell id="H7GjhvXn9Tmx8p5Mvb_k-105" value="&lt;p style=&quot;margin: 0px ; margin-top: 4px ; text-align: center ; text-decoration: underline&quot;&gt;&lt;strong&gt;로그아웃&lt;/strong&gt;&lt;/p&gt;&lt;hr&gt;&lt;p style=&quot;margin: 0px ; margin-left: 8px&quot;&gt;Redux 초기화&lt;/p&gt;" style="verticalAlign=middle;align=center;overflow=fill;fontSize=12;fontFamily=Helvetica;html=1;rounded=1;fontStyle=1;strokeWidth=3;fillColor=#E6FFCC" vertex="1" parent="1">
          <mxGeometry x="650" y="103" width="110" height="60" as="geometry" />
        </mxCell>
        <mxCell id="H7GjhvXn9Tmx8p5Mvb_k-106" value="" style="edgeStyle=elbowEdgeStyle;elbow=horizontal;strokeColor=#990000;strokeWidth=2;exitX=1;exitY=0.5;exitDx=0;exitDy=0;entryX=0;entryY=0.5;entryDx=0;entryDy=0;" edge="1" parent="1" source="10" target="15">
          <mxGeometry width="100" height="100" relative="1" as="geometry">
            <mxPoint x="673" y="263" as="sourcePoint" />
            <mxPoint x="680" y="230" as="targetPoint" />
          </mxGeometry>
        </mxCell>
        <mxCell id="H7GjhvXn9Tmx8p5Mvb_k-107" value="" style="edgeStyle=elbowEdgeStyle;elbow=horizontal;strokeColor=#990000;strokeWidth=2;exitX=1;exitY=0.5;exitDx=0;exitDy=0;entryX=0;entryY=0.5;entryDx=0;entryDy=0;" edge="1" parent="1" source="10" target="H7GjhvXn9Tmx8p5Mvb_k-105">
          <mxGeometry width="100" height="100" relative="1" as="geometry">
            <mxPoint x="633" y="193" as="sourcePoint" />
            <mxPoint x="708" y="143" as="targetPoint" />
          </mxGeometry>
        </mxCell>
        <mxCell id="H7GjhvXn9Tmx8p5Mvb_k-108" value="" style="edgeStyle=elbowEdgeStyle;elbow=horizontal;strokeColor=#990000;strokeWidth=2;exitX=1;exitY=0.5;exitDx=0;exitDy=0;entryX=0;entryY=0.5;entryDx=0;entryDy=0;" edge="1" parent="1" source="15" target="H7GjhvXn9Tmx8p5Mvb_k-109">
          <mxGeometry width="100" height="100" relative="1" as="geometry">
            <mxPoint x="883" y="253" as="sourcePoint" />
            <mxPoint x="958" y="224" as="targetPoint" />
          </mxGeometry>
        </mxCell>
        <mxCell id="H7GjhvXn9Tmx8p5Mvb_k-109" value="&lt;p style=&quot;margin: 0px ; margin-top: 4px ; text-align: center ; text-decoration: underline&quot;&gt;이미지 수정&lt;/p&gt;&lt;hr&gt;&lt;p style=&quot;margin: 0px ; margin-left: 8px&quot;&gt;S3 이미지 업로드&lt;br&gt;&lt;/p&gt;&lt;p style=&quot;margin: 0px ; margin-left: 8px&quot;&gt;경로 정보 RDS 저장&lt;/p&gt;&lt;p style=&quot;margin: 0px ; margin-left: 8px&quot;&gt;이미지 삭제&lt;/p&gt;" style="verticalAlign=middle;align=center;overflow=fill;fontSize=12;fontFamily=Helvetica;html=1;rounded=1;fontStyle=1;strokeWidth=3;fillColor=#E6FFCC" vertex="1" parent="1">
          <mxGeometry x="840" y="126" width="150" height="84" as="geometry" />
        </mxCell>
        <mxCell id="H7GjhvXn9Tmx8p5Mvb_k-110" value="" style="edgeStyle=elbowEdgeStyle;elbow=horizontal;strokeColor=#990000;strokeWidth=2;exitX=0.5;exitY=0;exitDx=0;exitDy=0;entryX=0.75;entryY=0;entryDx=0;entryDy=0;" edge="1" parent="1" source="H7GjhvXn9Tmx8p5Mvb_k-105" target="5">
          <mxGeometry width="100" height="100" relative="1" as="geometry">
            <mxPoint x="670" y="43" as="sourcePoint" />
            <mxPoint x="470" y="53" as="targetPoint" />
            <Array as="points">
              <mxPoint x="450" y="70" />
              <mxPoint x="220" y="180" />
            </Array>
          </mxGeometry>
        </mxCell>
        <mxCell id="H7GjhvXn9Tmx8p5Mvb_k-111" value="&lt;p style=&quot;margin: 0px ; margin-top: 4px ; text-align: center ; text-decoration: underline&quot;&gt;사용자 정보 수정&lt;/p&gt;&lt;hr&gt;&lt;p style=&quot;margin: 0px ; margin-left: 8px&quot;&gt;사용자 닉네임 수정&lt;/p&gt;&lt;p style=&quot;margin: 0px ; margin-left: 8px&quot;&gt;블로그 타이틀 변경&lt;/p&gt;&lt;p style=&quot;margin: 0px ; margin-left: 8px&quot;&gt;회원 탈퇴&lt;/p&gt;" style="verticalAlign=middle;align=center;overflow=fill;fontSize=12;fontFamily=Helvetica;html=1;rounded=1;fontStyle=1;strokeWidth=3;fillColor=#E6FFCC" vertex="1" parent="1">
          <mxGeometry x="835" y="244.5" width="160" height="79.5" as="geometry" />
        </mxCell>
        <mxCell id="H7GjhvXn9Tmx8p5Mvb_k-112" value="" style="edgeStyle=elbowEdgeStyle;elbow=horizontal;strokeColor=#990000;strokeWidth=2;entryX=-0.01;entryY=0.428;entryDx=0;entryDy=0;entryPerimeter=0;" edge="1" parent="1" source="15" target="H7GjhvXn9Tmx8p5Mvb_k-111">
          <mxGeometry width="100" height="100" relative="1" as="geometry">
            <mxPoint x="735" y="382" as="sourcePoint" />
            <mxPoint x="835" y="310.0000000000001" as="targetPoint" />
          </mxGeometry>
        </mxCell>
        <mxCell id="H7GjhvXn9Tmx8p5Mvb_k-113" value="서버" style="ellipse;shape=cloud;whiteSpace=wrap;html=1;" vertex="1" parent="1">
          <mxGeometry x="1040" y="450" width="120" height="80" as="geometry" />
        </mxCell>
        <mxCell id="H7GjhvXn9Tmx8p5Mvb_k-114" value="" style="edgeStyle=elbowEdgeStyle;elbow=horizontal;strokeColor=#990000;strokeWidth=2;" edge="1" parent="1" source="H7GjhvXn9Tmx8p5Mvb_k-109" target="H7GjhvXn9Tmx8p5Mvb_k-113">
          <mxGeometry width="100" height="100" relative="1" as="geometry">
            <mxPoint x="990" y="400" as="sourcePoint" />
            <mxPoint x="1083.4" y="448.5260000000002" as="targetPoint" />
            <Array as="points">
              <mxPoint x="1020" y="330" />
            </Array>
          </mxGeometry>
        </mxCell>
        <mxCell id="H7GjhvXn9Tmx8p5Mvb_k-115" value="" style="edgeStyle=elbowEdgeStyle;elbow=horizontal;strokeColor=#990000;strokeWidth=2;exitX=1;exitY=0.5;exitDx=0;exitDy=0;" edge="1" parent="1" source="H7GjhvXn9Tmx8p5Mvb_k-111" target="H7GjhvXn9Tmx8p5Mvb_k-113">
          <mxGeometry width="100" height="100" relative="1" as="geometry">
            <mxPoint x="1010" y="300.0000000000001" as="sourcePoint" />
            <mxPoint x="1069" y="362" as="targetPoint" />
            <Array as="points">
              <mxPoint x="1020" y="390" />
            </Array>
          </mxGeometry>
        </mxCell>
        <mxCell id="H7GjhvXn9Tmx8p5Mvb_k-116" value="&lt;p style=&quot;margin: 0px ; margin-top: 4px ; text-align: center ; text-decoration: underline&quot;&gt;게시물 조회&lt;/p&gt;&lt;hr&gt;&lt;p style=&quot;margin: 0px ; margin-left: 8px&quot;&gt;무한스크롤&lt;/p&gt;" style="verticalAlign=middle;align=center;overflow=fill;fontSize=12;fontFamily=Helvetica;html=1;rounded=1;fontStyle=1;strokeWidth=3;fillColor=#E6FFCC" vertex="1" parent="1">
          <mxGeometry x="835" y="505" width="110" height="55" as="geometry" />
        </mxCell>
        <mxCell id="H7GjhvXn9Tmx8p5Mvb_k-117" value="" style="edgeStyle=elbowEdgeStyle;elbow=horizontal;strokeColor=#990000;strokeWidth=2;exitX=1;exitY=0.5;exitDx=0;exitDy=0;entryX=0;entryY=0.5;entryDx=0;entryDy=0;" edge="1" parent="1" source="10" target="H7GjhvXn9Tmx8p5Mvb_k-116">
          <mxGeometry width="100" height="100" relative="1" as="geometry">
            <mxPoint x="490" y="399.9999999999999" as="sourcePoint" />
            <mxPoint x="783.5" y="545.75" as="targetPoint" />
            <Array as="points">
              <mxPoint x="600" y="410" />
            </Array>
          </mxGeometry>
        </mxCell>
        <mxCell id="H7GjhvXn9Tmx8p5Mvb_k-118" value="" style="edgeStyle=elbowEdgeStyle;elbow=horizontal;strokeColor=#990000;strokeWidth=2;exitX=1;exitY=0.5;exitDx=0;exitDy=0;" edge="1" parent="1" source="9">
          <mxGeometry width="100" height="100" relative="1" as="geometry">
            <mxPoint x="551.5" y="294.2499999999999" as="sourcePoint" />
            <mxPoint x="1040" y="490" as="targetPoint" />
            <Array as="points">
              <mxPoint x="990" y="460" />
            </Array>
          </mxGeometry>
        </mxCell>
        <mxCell id="H7GjhvXn9Tmx8p5Mvb_k-119" value="" style="edgeStyle=elbowEdgeStyle;elbow=horizontal;strokeColor=#990000;strokeWidth=2;exitX=1;exitY=0.5;exitDx=0;exitDy=0;" edge="1" parent="1" source="H7GjhvXn9Tmx8p5Mvb_k-116" target="H7GjhvXn9Tmx8p5Mvb_k-113">
          <mxGeometry width="100" height="100" relative="1" as="geometry">
            <mxPoint x="955" y="530" as="sourcePoint" />
            <mxPoint x="1050" y="590" as="targetPoint" />
            <Array as="points">
              <mxPoint x="1000" y="560" />
            </Array>
          </mxGeometry>
        </mxCell>
        <mxCell id="H7GjhvXn9Tmx8p5Mvb_k-120" value="" style="edgeStyle=elbowEdgeStyle;elbow=horizontal;strokeColor=#990000;strokeWidth=2;entryX=0.5;entryY=0;entryDx=0;entryDy=0;exitX=0.75;exitY=1;exitDx=0;exitDy=0;" edge="1" parent="1" target="H7GjhvXn9Tmx8p5Mvb_k-121">
          <mxGeometry width="100" height="100" relative="1" as="geometry">
            <mxPoint x="112" y="324" as="sourcePoint" />
            <mxPoint x="177" y="508.5" as="targetPoint" />
          </mxGeometry>
        </mxCell>
        <mxCell id="H7GjhvXn9Tmx8p5Mvb_k-121" value="&lt;p style=&quot;margin: 0px ; margin-top: 4px ; text-align: center ; text-decoration: underline&quot;&gt;정렬&lt;/p&gt;&lt;hr&gt;&lt;p style=&quot;margin: 0px ; margin-left: 8px&quot;&gt;트렌드 정렬&lt;/p&gt;&lt;p style=&quot;margin: 0px ; margin-left: 8px&quot;&gt;최신순 정렬&lt;/p&gt;&lt;p style=&quot;margin: 0px ; margin-left: 8px&quot;&gt;&lt;br&gt;&lt;/p&gt;" style="verticalAlign=middle;align=center;overflow=fill;fontSize=12;fontFamily=Helvetica;html=1;rounded=1;fontStyle=1;strokeWidth=3;fillColor=#E6FFCC" vertex="1" parent="1">
          <mxGeometry x="57" y="450" width="110" height="75" as="geometry" />
        </mxCell>
        <mxCell id="H7GjhvXn9Tmx8p5Mvb_k-122" value="" style="edgeStyle=elbowEdgeStyle;elbow=horizontal;strokeColor=#990000;strokeWidth=2;exitX=0.75;exitY=0;exitDx=0;exitDy=0;" edge="1" parent="1" source="H7GjhvXn9Tmx8p5Mvb_k-121">
          <mxGeometry width="100" height="100" relative="1" as="geometry">
            <mxPoint x="224" y="360" as="sourcePoint" />
            <mxPoint x="139.66666666666674" y="324" as="targetPoint" />
          </mxGeometry>
        </mxCell>
        <mxCell id="H7GjhvXn9Tmx8p5Mvb_k-123" value="" style="edgeStyle=elbowEdgeStyle;elbow=horizontal;strokeColor=#990000;strokeWidth=2;exitX=0.75;exitY=1;exitDx=0;exitDy=0;entryX=0;entryY=0.5;entryDx=0;entryDy=0;" edge="1" parent="1" source="5" target="11">
          <mxGeometry width="100" height="100" relative="1" as="geometry">
            <mxPoint x="333" y="390" as="sourcePoint" />
            <mxPoint x="273" y="508.5" as="targetPoint" />
            <Array as="points">
              <mxPoint x="208" y="450" />
            </Array>
          </mxGeometry>
        </mxCell>
        <mxCell id="H7GjhvXn9Tmx8p5Mvb_k-124" value="" style="edgeStyle=elbowEdgeStyle;elbow=horizontal;strokeColor=#990000;strokeWidth=2;exitX=1;exitY=0.5;exitDx=0;exitDy=0;entryX=0.55;entryY=0.95;entryDx=0;entryDy=0;entryPerimeter=0;" edge="1" parent="1" source="11" target="H7GjhvXn9Tmx8p5Mvb_k-113">
          <mxGeometry width="100" height="100" relative="1" as="geometry">
            <mxPoint x="740" y="490" as="sourcePoint" />
            <mxPoint x="1070" y="550" as="targetPoint" />
            <Array as="points">
              <mxPoint x="1106" y="560" />
            </Array>
          </mxGeometry>
        </mxCell>
      </root>
    </mxGraphModel>
  </diagram>
</mxfile>
